PathFileType	4	(X/Y/Z)	 1.9Hzhigh3min.trc
DataRate	CameraRate	NumFrames	NumMarkers	Units	OrigDataRate	OrigDataStartFrame	OrigNumFrames
200	200	10	35	m	200	376	1000
Frame#	Time	C7			LSH			RSH			MAN			RASI			LASI			HIPR			HIPL			RPSI			LPSI			COX			RTHI1			RTHI2			RTHI3			RTHI4			RSHA1			RSHA2			RSHA3			RSHA4			RHEEL			RMET5			RMET1			RTOE			LTHI1			LTHI2			LTHI3			LTHI4			LSHA1			LSHA2			LSHA3			LSHA4			LHEEL			LMET5			LMET1			LTOE			
		X1	Y1	Z1	X2	Y2	Z2	X3	Y3	Z3	X4	Y4	Z4	X5	Y5	Z5	X6	Y6	Z6	X7	Y7	Z7	X8	Y8	Z8	X9	Y9	Z9	X10	Y10	Z10	X11	Y11	Z11	X12	Y12	Z12	X13	Y13	Z13	X14	Y14	Z14	X15	Y15	Z15	X16	Y16	Z16	X17	Y17	Z17	X18	Y18	Z18	X19	Y19	Z19	X20	Y20	Z20	X21	Y21	Z21	X22	Y22	Z22	X23	Y23	Z23	X24	Y24	Z24	X25	Y25	Z25	X26	Y26	Z26	X27	Y27	Z27	X28	Y28	Z28	X29	Y29	Z29	X30	Y30	Z30	X31	Y31	Z31	X32	Y32	Z32	X33	Y33	Z33	X34	Y34	Z34	X35	Y35	Z35	
376	1.8800	-0.362289	1.512143	-0.519413	-0.294791	1.481821	-0.692378	-0.301937	1.487692	-0.350150	-0.247180	1.473349	-0.521540	-0.199706	1.082262	-0.433443	-0.186164	1.084575	-0.606072	-0.262218	1.137930	-0.387303	-0.235051	1.141550	-0.645986	-0.338390	1.122020	-0.456631	-0.328285	1.126255	-0.571978	-0.338313	1.130823	-0.513962	-0.294573	0.908287	-0.344278	-0.294220	0.846252	-0.341461	-0.221712	0.853891	-0.349634	-0.230265	0.913109	-0.352353	-0.331181	0.455849	-0.342655	-0.337681	0.413594	-0.347821	-0.277491	0.410410	-0.341439	-0.274414	0.450656	-0.340959	-0.358245	0.220128	-0.413246	-0.242159	0.113173	-0.344681	-0.196468	0.129726	-0.400251	-0.178351	0.111023	-0.393808	-0.307376	0.872516	-0.688763	-0.306108	0.813003	-0.688629	-0.234288	0.815593	-0.697236	-0.243293	0.876285	-0.698316	-0.355093	0.435968	-0.702066	-0.363248	0.396266	-0.698444	-0.301094	0.389765	-0.704452	-0.301246	0.433499	-0.707318	-0.392404	0.234337	-0.653918	-0.278224	0.118586	-0.709555	-0.239295	0.123267	-0.652505	-0.224660	0.102252	-0.658603	
377	1.8850	-0.362090	1.513576	-0.519397	-0.294705	1.483068	-0.692334	-0.301463	1.488969	-0.350206	-0.247086	1.474629	-0.521605	-0.200156	1.083607	-0.433179	-0.186541	1.085715	-0.605773	-0.262849	1.139250	-0.387296	-0.235320	1.142627	-0.645815	-0.338940	1.123101	-0.456654	-0.328647	1.127188	-0.572136	-0.338605	1.131761	-0.513834	-0.294430	0.909509	-0.343897	-0.294061	0.847470	-0.341150	-0.221611	0.855168	-0.349624	-0.230134	0.914330	-0.352288	-0.330966	0.457037	-0.342764	-0.337494	0.414780	-0.347967	-0.277331	0.411573	-0.341611	-0.274225	0.451829	-0.341094	-0.358154	0.221005	-0.413741	-0.241581	0.115285	-0.343970	-0.195869	0.131528	-0.399598	-0.177651	0.113010	-0.392884	-0.307021	0.873847	-0.688511	-0.305897	0.814352	-0.688433	-0.234023	0.816786	-0.696672	-0.242878	0.877477	-0.697774	-0.354206	0.436974	-0.702551	-0.362284	0.397206	-0.698904	-0.300077	0.390843	-0.704392	-0.300285	0.434558	-0.707267	-0.391462	0.235006	-0.654237	-0.276153	0.120303	-0.710146	-0.237334	0.124901	-0.652927	-0.222535	0.103813	-0.658974	
378	1.8900	-0.361899	1.514755	-0.519374	-0.294647	1.484086	-0.692304	-0.301077	1.490040	-0.350260	-0.247021	1.475637	-0.521667	-0.200577	1.084692	-0.432901	-0.186921	1.086645	-0.605457	-0.263466	1.140302	-0.387275	-0.235603	1.143506	-0.645646	-0.339488	1.123922	-0.456657	-0.329013	1.127915	-0.572239	-0.338936	1.132486	-0.513730	-0.294293	0.910490	-0.343560	-0.293892	0.848439	-0.340915	-0.221498	0.856208	-0.349661	-0.230015	0.915335	-0.352235	-0.330709	0.457991	-0.342865	-0.337285	0.415752	-0.348087	-0.277150	0.412491	-0.341795	-0.273989	0.452759	-0.341231	-0.358158	0.221704	-0.414176	-0.241200	0.117139	-0.343241	-0.195491	0.132952	-0.398990	-0.177208	0.114584	-0.392006	-0.306555	0.874884	-0.688277	-0.305545	0.815398	-0.688236	-0.233617	0.817715	-0.696078	-0.242362	0.878413	-0.697210	-0.353287	0.437747	-0.702985	-0.361311	0.397914	-0.699333	-0.299053	0.391671	-0.704306	-0.299310	0.435368	-0.707196	-0.390576	0.235495	-0.654535	-0.274218	0.121740	-0.710606	-0.235472	0.126308	-0.653213	-0.220508	0.105124	-0.659175	
379	1.8950	-0.361727	1.515670	-0.519346	-0.294610	1.484868	-0.692285	-0.300781	1.490907	-0.350306	-0.246924	1.476396	-0.521734	-0.200971	1.085513	-0.432612	-0.187306	1.087361	-0.605134	-0.264044	1.141094	-0.387251	-0.235908	1.144178	-0.645478	-0.340018	1.124496	-0.456642	-0.329380	1.128439	-0.572281	-0.339307	1.132999	-0.513646	-0.294163	0.911214	-0.343272	-0.293710	0.849154	-0.340751	-0.221372	0.857015	-0.349733	-0.229914	0.916120	-0.352196	-0.330407	0.458725	-0.342950	-0.337046	0.416502	-0.348142	-0.276942	0.413179	-0.341984	-0.273727	0.453475	-0.341348	-0.358264	0.222232	-0.414567	-0.240999	0.118731	-0.342508	-0.195311	0.134030	-0.398420	-0.176987	0.115789	-0.391164	-0.306003	0.875608	-0.688077	-0.305055	0.816113	-0.688053	-0.233068	0.818367	-0.695459	-0.241763	0.879082	-0.696627	-0.352342	0.438272	-0.703367	-0.360335	0.398406	-0.699728	-0.298032	0.392246	-0.704196	-0.298321	0.435942	-0.707112	-0.389747	0.235825	-0.654802	-0.272477	0.122846	-0.710918	-0.233766	0.127431	-0.653343	-0.218653	0.106147	-0.659205	
380	1.9000	-0.361581	1.516330	-0.519320	-0.294596	1.485414	-0.692273	-0.300576	1.491566	-0.350342	-0.246802	1.476906	-0.521800	-0.201342	1.086066	-0.432320	-0.187697	1.087859	-0.604808	-0.264583	1.141620	-0.387221	-0.236236	1.144635	-0.645315	-0.340539	1.124818	-0.456607	-0.329744	1.128761	-0.572272	-0.339684	1.133279	-0.513538	-0.294046	0.911684	-0.343035	-0.293513	0.849613	-0.340661	-0.221232	0.857598	-0.349826	-0.229831	0.916684	-0.352171	-0.330066	0.459227	-0.343011	-0.336784	0.417027	-0.348137	-0.276714	0.413629	-0.342170	-0.273443	0.453977	-0.341433	-0.358476	0.222582	-0.414922	-0.240969	0.120066	-0.341784	-0.195310	0.134778	-0.397875	-0.176963	0.116655	-0.390357	-0.305380	0.876000	-0.687918	-0.304434	0.816507	-0.687908	-0.232399	0.818764	-0.694835	-0.241097	0.879479	-0.696031	-0.351380	0.438565	-0.703686	-0.359367	0.398681	-0.700079	-0.297023	0.392580	-0.704062	-0.297332	0.436267	-0.707010	-0.388983	0.236001	-0.655026	-0.270967	0.123591	-0.711069	-0.232268	0.128236	-0.653319	-0.217036	0.106841	-0.659069	
381	1.9050	-0.361472	1.516723	-0.519296	-0.294625	1.485723	-0.692267	-0.300445	1.491980	-0.350392	-0.246709	1.477159	-0.521861	-0.201693	1.086353	-0.432029	-0.188094	1.088135	-0.604486	-0.265073	1.141879	-0.387191	-0.236589	1.144874	-0.645160	-0.341046	1.124890	-0.456553	-0.330108	1.128879	-0.572208	-0.340104	1.133363	-0.513471	-0.293944	0.911898	-0.342850	-0.293305	0.849815	-0.340631	-0.221076	0.857938	-0.349940	-0.229768	0.917015	-0.352150	-0.329687	0.459520	-0.343010	-0.336508	0.417334	-0.348083	-0.276471	0.413832	-0.342350	-0.273150	0.454261	-0.341453	-0.358797	0.222735	-0.415230	-0.241099	0.121137	-0.341087	-0.195470	0.135231	-0.397360	-0.177116	0.117206	-0.389584	-0.304705	0.876062	-0.687811	-0.303714	0.816576	-0.687811	-0.231630	0.818897	-0.694213	-0.240391	0.879602	-0.695442	-0.350410	0.438632	-0.703937	-0.358417	0.398739	-0.700378	-0.296035	0.392661	-0.703910	-0.296352	0.436351	-0.706891	-0.388290	0.236023	-0.655205	-0.269707	0.123953	-0.711052	-0.231030	0.128697	-0.653156	-0.215722	0.107165	-0.658781	
382	1.9100	-0.361400	1.516858	-0.519274	-0.294697	1.485782	-0.692251	-0.300382	1.492138	-0.350451	-0.246613	1.477167	-0.521920	-0.202028	1.086377	-0.431744	-0.188497	1.088187	-0.604173	-0.265520	1.141875	-0.387160	-0.236962	1.144886	-0.645014	-0.341539	1.124713	-0.456484	-0.330481	1.128782	-0.572131	-0.340558	1.133239	-0.513450	-0.293857	0.911851	-0.342721	-0.293086	0.849759	-0.340656	-0.220899	0.858038	-0.350074	-0.229712	0.917114	-0.352140	-0.329264	0.459576	-0.342928	-0.336206	0.417428	-0.347975	-0.276210	0.413794	-0.342524	-0.272858	0.454338	-0.341397	-0.359230	0.222694	-0.415489	-0.241378	0.121939	-0.340429	-0.195774	0.135402	-0.396880	-0.177429	0.117464	-0.388861	-0.304001	0.875800	-0.687760	-0.302920	0.816333	-0.687763	-0.230786	0.818775	-0.693606	-0.239660	0.879462	-0.694876	-0.349454	0.438488	-0.704127	-0.357498	0.398575	-0.700610	-0.295082	0.392491	-0.703736	-0.295391	0.436200	-0.706768	-0.387673	0.235893	-0.655349	-0.268717	0.123924	-0.710862	-0.230094	0.128762	-0.652837	-0.214751	0.107104	-0.658331	
383	1.9150	-0.361371	1.516730	-0.519251	-0.294832	1.485592	-0.692223	-0.300361	1.492012	-0.350520	-0.246539	1.476931	-0.521970	-0.202348	1.086142	-0.431470	-0.188902	1.088014	-0.603875	-0.265920	1.141607	-0.387132	-0.237355	1.144671	-0.644878	-0.342018	1.124297	-0.456408	-0.330860	1.128460	-0.572047	-0.341049	1.132893	-0.513476	-0.293783	0.911536	-0.342643	-0.292855	0.849439	-0.340724	-0.220703	0.857906	-0.350218	-0.229663	0.916964	-0.352144	-0.328795	0.459415	-0.342744	-0.335882	0.417299	-0.347813	-0.275903	0.413520	-0.342705	-0.272544	0.454188	-0.341305	-0.359776	0.222465	-0.415703	-0.241795	0.122467	-0.339824	-0.196219	0.135301	-0.396440	-0.177885	0.117446	-0.388201	-0.303292	0.875236	-0.687763	-0.302072	0.815785	-0.687760	-0.229889	0.818404	-0.693022	-0.238918	0.879065	-0.694343	-0.348528	0.438127	-0.704257	-0.356620	0.398211	-0.700768	-0.294181	0.392094	-0.703541	-0.294464	0.435810	-0.706621	-0.387141	0.235628	-0.655463	-0.267975	0.123539	-0.710516	-0.229490	0.128406	-0.652350	-0.214158	0.106643	-0.657727	
384	1.9200	-0.361381	1.516338	-0.519221	-0.295063	1.485156	-0.692183	-0.300389	1.491611	-0.350594	-0.246521	1.476444	-0.522007	-0.202656	1.085653	-0.431215	-0.189306	1.087609	-0.603595	-0.266285	1.141075	-0.387106	-0.237760	1.144220	-0.644757	-0.342494	1.123634	-0.456327	-0.331247	1.127903	-0.571959	-0.341578	1.132326	-0.513564	-0.293720	0.910964	-0.342616	-0.292617	0.848855	-0.340824	-0.220494	0.857531	-0.350369	-0.229620	0.916568	-0.352164	-0.328287	0.459040	-0.342492	-0.335550	0.416970	-0.347634	-0.275550	0.412996	-0.342900	-0.272145	0.453739	-0.341303	-0.360435	0.222038	-0.415861	-0.242334	0.122713	-0.339286	-0.196802	0.134934	-0.396057	-0.178479	0.117154	-0.387624	-0.302589	0.874384	-0.687813	-0.301189	0.814968	-0.687796	-0.228973	0.817796	-0.692470	-0.238181	0.878422	-0.693855	-0.347642	0.437556	-0.704310	-0.355794	0.397637	-0.700839	-0.293337	0.391469	-0.703322	-0.293577	0.435181	-0.706446	-0.386705	0.235221	-0.655551	-0.267475	0.122827	-0.710027	-0.229237	0.127634	-0.651697	-0.213951	0.105784	-0.656960	
385	1.9250	-0.361429	1.515680	-0.519177	-0.295404	1.484484	-0.692148	-0.300461	1.490943	-0.350663	-0.246567	1.475710	-0.522023	-0.202954	1.084910	-0.430982	-0.189705	1.086966	-0.603345	-0.266625	1.140286	-0.387086	-0.238169	1.143532	-0.644648	-0.342963	1.122718	-0.456247	-0.331643	1.127107	-0.571865	-0.342145	1.131539	-0.513715	-0.293666	0.910130	-0.342638	-0.292372	0.848007	-0.340945	-0.220272	0.856904	-0.350527	-0.229578	0.915918	-0.352201	-0.327741	0.458449	-0.342176	-0.335208	0.416434	-0.347443	-0.275147	0.412229	-0.343118	-0.271661	0.453005	-0.341417	-0.361207	0.221414	-0.415955	-0.242981	0.122667	-0.338822	-0.197516	0.134319	-0.395758	-0.179207	0.116593	-0.387149	-0.301902	0.873272	-0.687905	-0.300312	0.813880	-0.687866	-0.228060	0.816947	-0.691958	-0.237470	0.877540	-0.693421	-0.346792	0.436774	-0.704293	-0.355023	0.396865	-0.700831	-0.292556	0.390618	-0.703075	-0.292731	0.434322	-0.706244	-0.386378	0.234671	-0.655617	-0.267205	0.121819	-0.709414	-0.229340	0.126459	-0.650874	-0.214129	0.104549	-0.656039	
